HIERARCHY
ROOT Hips
{
  OFFSET -69.4423 88.0299 51.6846
  CHANNELS 6 Xposition Yposition Zposition Zrotation Xrotation Yrotation
  JOINT Spine
  {
    OFFSET 12.0259 -0.162853 1.93176e-005
    CHANNELS 3 Zrotation Xrotation Yrotation
    JOINT Spine1
    {
      OFFSET 15.3169 -0.0121909 0
      CHANNELS 3 Zrotation Xrotation Yrotation
      JOINT Spine2
      {
        OFFSET 15.3176 -0.0121922 0
        CHANNELS 3 Zrotation Xrotation Yrotation
        JOINT Neck
        {
          OFFSET 19.9142 1.56236 0
          CHANNELS 3 Zrotation Xrotation Yrotation
          JOINT Head
          {
            OFFSET 6.92646 0 0
            CHANNELS 3 Zrotation Xrotation Yrotation
            End Site
            {
              OFFSET 20.7666 0 0
            }
          }
          JOINT LeftShoulder
          {
            OFFSET -4.94072 -1.14703 8.14416
            CHANNELS 3 Zrotation Xrotation Yrotation
            JOINT LeftArm
            {
              OFFSET 14.108 0 -2.74767e-005
              CHANNELS 3 Zrotation Xrotation Yrotation
              JOINT LeftForeArm
              {
                OFFSET 28.5802 -0.0783412 -0.0284884
                CHANNELS 3 Zrotation Xrotation Yrotation
                JOINT LeftHand
                {
                  OFFSET 27.092 0 0
                  CHANNELS 3 Zrotation Xrotation Yrotation
                  End Site
                  {
                    OFFSET 9.55928 -0.186424 0.145352
                  }
                }
              }
            }
          }
          JOINT RightShoulder
          {
            OFFSET -7.15748 -1.33027 -6.24935
            CHANNELS 3 Zrotation Xrotation Yrotation
            JOINT RightArm
            {
              OFFSET 14.108 0 1.82997e-005
              CHANNELS 3 Zrotation Xrotation Yrotation
              JOINT RightForeArm
              {
                OFFSET 28.5802 -0.0707221 2.30684e-005
                CHANNELS 3 Zrotation Xrotation Yrotation
                JOINT RightHand
                {
                  OFFSET 27.092 0 -1.30073e-005
                  CHANNELS 3 Zrotation Xrotation Yrotation
                  End Site
                  {
                    OFFSET 9.55929 -0.186417 -0.145354
                  }
                }
              }
            }
          }
        }
      }
    }
  }
  JOINT LeftUpLeg
  {
    OFFSET 0.00499725 -0.534999 8.837
    CHANNELS 3 Zrotation Xrotation Yrotation
    JOINT LeftLeg
    {
      OFFSET 39.9035 -0.00124594 0.000252775
      CHANNELS 3 Zrotation Xrotation Yrotation
      JOINT LeftFoot
      {
        OFFSET 39.6689 0 0
        CHANNELS 3 Zrotation Xrotation Yrotation
        JOINT LeftToe
        {
          OFFSET 10.1624 13.6296 0
          CHANNELS 3 Zrotation Xrotation Yrotation
          End Site
          {
            OFFSET 8.38147 0 0
          }
        }
      }
    }
  }
  JOINT RightUpLeg
  {
    OFFSET 0.00499725 -0.535 -8.837
    CHANNELS 3 Zrotation Xrotation Yrotation
    JOINT RightLeg
    {
      OFFSET 39.9036 -0.000268477 0.000106433
      CHANNELS 3 Zrotation Xrotation Yrotation
      JOINT RightFoot
      {
        OFFSET 39.6689 1.17892e-005 0
        CHANNELS 3 Zrotation Xrotation Yrotation
        JOINT RightToe
        {
          OFFSET 10.1624 13.6296 0
          CHANNELS 3 Zrotation Xrotation Yrotation
          End Site
          {
            OFFSET 8.38147 0 0
          }
        }
      }
    }
  }
}
MOTION
Frames:	9
Frame Time:	0.0333333
-13.5265 87.8385 -47.1189 91.6912 26.1726 -7.1076 0.960439 2.7958 0.979019 1.87621 5.60745 1.91455 1.87621 5.60747 1.91454 -18.7833 -1.5337 -11.2403 46.472 -0.242917 13.321 -163.565 -4.28209 -93.8572 -19.2771 8.00997 86.3814 -20.7928 2.01418 -13.5559 6.06616 -81.0222 8.45188 -163.217 -6.2328 74.4505 -23.5328 1.69728 -78.6691 -27.6495 -3.81388 16.7046 9.17654 87.1375 -9.05917 -26.2729 -1.72072 -177.165 -16.6527 0.385362 -1.87651 -8.74697 -11.6818 -3.52274 90 9.54166e-015 1.27222e-014 11.2004 -5.18125 -170.411 -12.2909 -0.850767 0.367744 3.2273 8.5171 0.130173 90 -1.82882e-014 -1.59028e-014 
-15.923 87.7225 -45.5381 91.4267 25.9246 -6.52949 0.990408 3.07012 0.76389 1.94389 6.15327 1.47779 1.94387 6.15324 1.47778 -18.965 -1.62782 -11.0205 46.4083 -0.335421 13.4361 -163.348 -4.35508 -93.5147 -17.8327 7.68864 85.851 -19.5456 1.83411 -12.88 4.58073 -79.2203 7.04415 -163.032 -6.27404 74.6947 -22.1599 2.07179 -79.5657 -28.0268 -3.91749 16.9033 9.35508 87.133 -9.24573 -24.7128 -0.263938 -177.345 -17.0028 0.395436 -1.83758 -10.1861 -11.0708 -3.7034 90 -2.22639e-014 6.36111e-015 12.1822 -3.949 -171.256 -13.9785 -0.842784 0.331617 3.0791 9.11802 0.241795 90 -3.57812e-014 -3.65764e-014 
-18.3875 87.9776 -43.5466 91.6424 26.0931 -5.56816 0.851247 3.19362 0.415482 1.68317 6.39344 0.785315 1.68317 6.39347 0.785304 -18.6725 -1.73818 -10.8362 46.4872 -0.221158 13.8031 -163.633 -4.42004 -93.2613 -15.9751 7.97636 85.3348 -18.6931 1.71575 -12.3865 4.01181 -77.5816 6.42764 -163.336 -6.2474 74.9078 -21.3465 1.60304 -81.0482 -28.2139 -3.96739 17.0016 11.8768 87.6826 -11.7812 -23.1353 2.602 -178.542 -16.6057 0.366547 -1.79636 -13.5521 -10.5304 -4.27623 90 -3.49861e-014 -4.45278e-014 11.9727 -3.32519 -172.814 -17.1069 -0.814819 0.253227 1.93718 9.38404 0.568975 90 1.11319e-014 7.95139e-015 
-20.7816 88.3539 -41.2518 91.654 27.5663 -4.45822 0.77331 3.01418 0.121986 1.54341 6.03024 0.203736 1.5434 6.03024 0.203727 -18.8079 -1.57355 -10.8598 47.5392 0.282122 13.952 -163.475 -4.33659 -93.2477 -13.4993 8.05995 84.9601 -18.1305 1.65249 -12.0561 4.55239 -76.0512 6.84783 -163.196 -6.09679 74.8654 -19.8628 1.26548 -82.4566 -27.7096 -3.83041 16.7263 6.93166 86.15 -6.80661 -20.4575 4.27786 179.515 -15.1512 0.442749 -1.79333 -13.6797 -7.62314 -3.21127 90 -3.02153e-014 -3.49861e-014 10.3054 -4.52165 -174.681 -23.4994 -0.769813 0.0583709 0.262882 7.18269 0.66055 90 -6.36111e-015 -6.36111e-015 
-23.1658 88.7133 -39.0153 91.3358 29.5883 -3.9937 0.804513 2.74817 0.0569439 1.60907 5.49727 0.0754963 1.60906 5.49727 0.0754815 -18.8191 -1.46553 -10.7498 47.4527 0.078123 13.3126 -163.403 -4.18599 -93.1207 -13.1738 7.89723 84.8457 -17.6368 1.58595 -11.7863 4.93463 -77.0473 7.27613 -163.169 -5.88723 74.9284 -18.9927 0.489481 -83.4972 -27.4578 -3.76242 16.5853 6.8941 86.1595 -6.76506 -17.4221 4.89587 178.362 -14.2571 0.531459 -1.79182 -12.4888 -5.88844 -2.40204 90 -2.70347e-014 -2.8625e-014 7.67459 -6.40241 -176.032 -31.2508 -0.645011 -0.163332 -4.81011 6.14942 1.36652 90 3.18055e-015 -3.18055e-015 
-25.3908 88.9521 -36.6984 90.968 32.1688 -3.50489 0.886157 2.43111 0.12958 1.76924 4.86434 0.221912 1.76923 4.86434 0.221888 -19.2442 -1.34841 -11.0529 47.5572 -0.156926 12.8129 -162.941 -4.19124 -93.373 -12.5537 6.92208 85.2699 -17.2466 1.53924 -11.6127 4.72109 -75.6003 6.97192 -162.782 -5.88088 74.5999 -18.3481 -1.06217 -83.7707 -27.7335 -3.83487 16.731 7.6784 86.574 -7.58821 -14.1164 5.81942 177.267 -12.7374 0.617678 -1.77508 -11.7713 -2.87693 -1.31712 90 -1.43125e-014 -3.18055e-015 3.40339 -8.74452 -178.055 -39.9218 -0.430378 -0.38355 -13.9261 3.29686 1.77456 90 -9.54166e-015 -7.95139e-015 
-27.326 88.9267 -34.3728 90.6741 34.4852 -1.76634 0.865074 2.0933 -0.0622839 1.73418 4.18592 -0.156209 1.73417 4.18589 -0.156222 -19.0699 -1.21014 -11.3028 47.4457 -0.0123499 12.5801 -163.131 -4.09061 -93.7153 -15.3446 7.373 85.8923 -17.9899 1.625 -12.0247 5.43378 -77.4057 7.69605 -162.992 -5.76801 74.3299 -18.3915 -3.22312 -84.1909 -28.0828 -3.92423 16.9206 8.6722 87.0231 -8.59446 -10.5137 8.51681 174.948 -11.1682 0.730902 -1.6995 -9.94778 1.65275 0.215549 90 -1.59028e-015 6.36111e-015 -2.04382 -9.66392 178.451 -48.4968 -0.28018 -0.474627 -20.5874 -0.825673 0.382531 90 3.18055e-015 6.36111e-015 
-29.131 88.8734 -32.0564 89.9434 37.2132 0.287007 0.957005 1.68057 -0.279094 1.92343 3.35667 -0.586473 1.92342 3.35669 -0.58649 -19.0898 -0.991853 -11.4546 47.5845 0.23409 12.2438 -163.075 -3.85942 -93.9514 -19.021 7.18695 85.9908 -18.8044 1.71519 -12.4843 5.97442 -79.205 8.27854 -162.972 -5.61977 74.14 -17.9664 -4.66035 -84.3223 -27.8975 -3.87012 16.8126 6.63677 86.2948 -6.52326 -6.25394 8.2813 172.38 -8.66072 0.80741 -1.62776 -8.88511 3.91242 0.782647 90 1.59028e-015 -6.36111e-015 -6.65655 -9.75262 175.143 -56.3864 -0.237016 -0.440509 -15.9041 -0.613426 0.242004 90 9.54166e-015 1.11319e-014 
-30.8948 88.825 -29.9947 89.2557 39.7337 1.47188 1.02233 1.30149 -0.328781 2.05293 2.5973 -0.680852 2.05292 2.59732 -0.68086 -18.9879 -0.814647 -11.3401 47.5889 0.26782 11.6317 -163.11 -3.52103 -93.9468 -20.6448 6.42844 85.7477 -19.7764 1.84406 -13.0435 4.38253 -79.0173 6.76963 -163.052 -5.40362 74.1846 -17.1121 -5.65188 -84.4461 -27.4892 -3.76911 16.6035 5.96512 85.848 -5.83717 -3.0215 7.32862 171.048 -7.20735 0.87082 -1.56447 -7.70896 5.40429 1.04562 90 3.18055e-015 9.54166e-015 -10.9341 -8.85482 173.198 -61.7858 -0.135396 -0.370841 -12.3512 2.59156 1.23075 90 2.54444e-014 2.46493e-014 
